<?xml version="1.0" encoding="utf-8"?>
<!-- Generator: Adobe Illustrator 23.0.1, SVG Export Plug-In . SVG Version: 6.00 Build 0)  -->
<svg version="1.1" id="Layer_1" xmlns="http://www.w3.org/2000/svg" xmlns:xlink="http://www.w3.org/1999/xlink" x="0px" y="0px"
	 viewBox="0 0 148 25" style="enable-background:new 0 0 148 25;" xml:space="preserve">
<style type="text/css">
	.st0{fill:#BFD732;}
</style>
<g>
	<path d="M10.9,22.5C4.8,22.5,1,17.3,1,11.7C1,5.8,4.4,1,10.9,1c4.8,0,8.5,2.8,8.8,6.9h-4.2c-0.2-1.9-2.2-3.4-4.5-3.4
		c-3.4,0-5.6,2.6-5.6,7.4c0,3.3,1.7,7,5.6,7c3.6,0,4.9-1.8,4.9-4.6h-4.5V11h8.4v3.4C19.7,19.1,17.6,22.5,10.9,22.5z"/>
	<path d="M22.1,21.8V1.5H26v20.3H22.1z"/>
	<path d="M27.9,13.2c0.3-3.3,3.3-6.3,6.6-6.6c5.2-0.5,8.6,2.7,8.6,7.8c0,4.7-2.9,7.8-7.6,7.8C30.3,22.2,27.4,18.4,27.9,13.2z
		 M39.1,14.4c0-3-1.2-4.5-3.6-4.5c-2.4,0-3.6,1.5-3.6,4.5c0,3,1.2,4.5,3.6,4.5C37.9,18.9,39.1,17.4,39.1,14.4L39.1,14.4z"/>
	<path d="M44.9,21.8V1.5h3.9v7.4c1.1-1.6,2.6-2.3,4.4-2.3c3.8,0,6.1,3.2,6.1,7.7c0,5-2.7,8-6.4,8c-1.8,0-3.2-0.7-4.1-2.2l0,1.8H44.9
		z M55.3,14.5c0-3-1.1-4.6-3.4-4.6c-2.2,0-3.3,1.6-3.3,4.8c0,2.5,1.5,4.3,3.3,4.3C53.9,19,55.3,17.1,55.3,14.5z"/>
	<path d="M70.9,21.8c-0.1-0.4-0.2-0.9-0.2-1.3c-0.9,1-2.5,1.7-4.5,1.7c-3.4,0-5-1.7-5-4.1c0-4.3,2.9-4.8,6.8-5.3
		c2-0.3,2.5-0.7,2.5-1.7c0-1-1-1.5-2.5-1.5c-1.8,0-2.5,0.9-2.7,2.2h-3.7c0.1-3.1,1.8-5.2,6.5-5.2c4.7,0,6.3,2.1,6.3,5.9v9.4H70.9z
		 M70.7,14.5c-0.4,0.4-1.1,0.6-2.5,0.9c-2.2,0.4-3,1.1-3,2.3c0,1.1,0.7,1.7,1.9,1.7c2,0,3.5-1.5,3.6-3.2L70.7,14.5z"/>
	<path d="M86.8,21.8v-9c0-2.3-0.7-2.9-2.5-2.9c-2.1,0-3,1.1-3,3.4v8.5h-3.9V6.9H81v2.2c0.9-1.7,2.4-2.6,4.8-2.6c2.8,0,4.9,1.7,4.9,5
		v10.3L86.8,21.8z"/>
	<path d="M102.1,16.2c-0.1,1.6-0.8,2.6-2.3,2.6c-1.6,0-2.3-1.1-2.3-3V9.7h6.1V6.6h-6.1V2.9h-3.9v13.3c0,3.2,1.7,6,6.1,6
		c4.2,0,6-2.8,6-6v0L102.1,16.2z"/>
	<path class="st0" d="M110.5,0.4c-0.4-0.3-1-0.1-1.3,0.3c-0.1,0.2-0.2,0.5-0.1,0.7l1.8,2.6c3.4,5.1,3.4,11.8,0,16.9l-1.8,2.6
		c-0.1,0.5,0.1,1,0.6,1.1c0.2,0.1,0.5,0,0.7-0.1l14.7-11.2c0.5-0.4,0.6-1.1,0.2-1.6c-0.1-0.1-0.1-0.2-0.2-0.2L110.5,0.4z"/>
</g>
</svg>
